<svg xmlns="http://www.w3.org/2000/svg" xmlns:xlink="http://www.w3.org/1999/xlink" id="Layer_1" x="0" y="0" enable-background="new 0 0 3750.0 505.3" version="1.1" viewBox="0 0 3750.0 505.3" xml:space="preserve">
 <style type="text/css">.st0{fill:#4d4d4d}.st1{fill:#22cc76}.st2{fill:#fff}</style>

 <title>6-bitcoin-cash-logo-horizontal</title>
  <path id="svg_1" class="st0" d="m734.695801,498.700012c-24.099976,0 -48.299988,-0.700012 -72.099976,-2.299988c-25.100037,-1.700012 -50.100037,-5.200012 -74.700012,-10.400024l0,-427c20.200012,-3.900002 42.700012,-6.5 66.900024,-8.5c24.099976,-2 46.599976,-2.900002 67.5,-2.900002c28.099915,0 53.799988,2 77.299988,6.200001c23.5,3.900002 43.699951,10.799999 60.699951,20.500004c17,9.799995 30.300049,22.5 39.800049,38.5s14.400024,35.599991 14.400024,58.699997c0,35.199997 -17,62.899994 -50.900024,83.199997c28.099976,10.400009 47,25.099991 57.099976,43.099991c10.099976,18.300018 15.300049,38.800018 15.300049,61.600006c0,46.299988 -17,80.899994 -50.600098,104.100006c-34.199951,23.799988 -84.099854,35.200012 -150.699951,35.200012zm-50.199951,-273.000015l48.300049,0c30.699951,0 52.199951,-3.899994 65.599976,-11.699997c13,-7.800003 19.599976,-20.5 19.599976,-37.800003c0,-17.899994 -6.800049,-30.300003 -20.199951,-37.5c-13.700073,-7.199997 -33.600098,-10.799995 -59.700073,-10.799995c-8.5,0 -17.599976,0 -27.399963,0.299995s-18.299988,0.699997 -26.100037,1.600006c-0.099976,0 -0.099976,95.899994 -0.099976,95.899994l0,0zm0,75.699997l0,113.800018c7.200012,1 15,1.599976 23.5,2s17.900024,0.699982 28.099976,0.699982c29.700073,0 53.5,-4.199982 71.800049,-12.699982s27.400024,-24.100006 27.400024,-47c0,-20.200012 -7.5,-34.900024 -22.800049,-43.400024c-15.300049,-8.799988 -37.199951,-13 -65.599976,-13l-62.299988,0l0,-0.399994l-0.100037,0z"/>
  <path id="svg_2" class="st0" d="m1077.195801,62.299999c0,17.299999 -5.5,31.000004 -17,41.100002c-11.099976,10.099998 -24.5,15 -39.800049,15c-14.699951,0.199997 -28.899902,-5.099998 -39.799927,-15c-11.099976,-10.099998 -17,-23.5 -17,-41.100002c0,-17.299999 5.5,-31 17,-41.099998c10.900024,-9.800001 25.099976,-15.200001 39.799927,-15.000001c14.700073,-0.2 28.900024,5.1 39.800049,15.000001c11.400024,10.099998 17,23.799999 17,41.099998zm-9.099976,430.900013l-94.599976,0l0,-334.400009l94.599976,0l0,334.400009z"/>
  <path id="svg_3" class="st0" d="m1118.99585,75.599998l94.599976,-15.299999l0,98.500004l113.800049,0l0,78.899994l-113.800049,0l0,117.400009c0,19.899994 3.599976,35.899994 10.400024,47.600006s21.199951,17.899994 42.400024,17.899994c10.5,-0.100006 21,-1 31.299927,-2.899994c10.100098,-1.800018 20,-4.400024 29.700073,-7.800018l13.400024,73.700012c-12.400024,5 -25.200073,9.100006 -38.200073,12.100006c-14,3.299988 -31,5.199982 -51.5,5.199982c-25.799927,0 -47.299927,-3.600006 -64.299927,-10.399994s-30.700073,-16.600006 -40.800049,-29.399994c-10.099976,-12.399994 -17.300049,-27.700012 -21.199951,-45.300018c-4.200073,-19.399994 -6.300049,-39.199982 -6.200073,-59l0,-281.199989l0.400024,0z"/>
  <path id="svg_4" class="st0" d="m1340.795898,326.100006c-0.199951,-23.199982 3.800049,-46.299988 11.699951,-68.199982c7.400024,-20.700012 18.900024,-39.700012 33.900024,-55.800018c14.700073,-16 32.900024,-28.399994 54.099976,-37.800003c21.200073,-9.5 45.300049,-14 72.400024,-14c17.900024,0 34.200073,1.600006 48.900024,4.900009c14.800049,3.199997 29.199951,7.800003 43.099976,13.699997l-19.599976,75.699997c-9.599976,-3.5 -19.400024,-6.5 -29.400024,-8.800003c-11.699951,-2.699997 -23.599976,-4 -35.599976,-3.899994c-28.099976,0 -48.900024,8.800003 -62.599976,26.099991s-20.5,40.100006 -20.5,68.5c0,30 6.5,53.5 19.199951,69.800018c13,16.600006 35.599976,24.799988 67.5,24.799988c12.400024,0 24.700073,-1.100006 36.900024,-3.299988c12.400024,-1.899994 24.599976,-5.300018 36.199951,-10.100006l13.400024,77.600006c-13.400024,5.399994 -27.199951,9.399994 -41.400024,12.100006c-18.099976,3.5 -36.399902,5.299988 -54.799927,5.199982c-30.700073,0 -56.800049,-4.600006 -78.900024,-13.699982c-22.199951,-9.100006 -40.099976,-21.5 -54.5,-37.200012s-24.5,-34.200012 -31,-55.5c-6,-22.900024 -9,-46.400024 -9,-70.100006z"/>
  <path id="svg_5" class="st0" d="m1936.395752,325.5c0,26.399994 -3.899902,50.200012 -11.399902,72.100006s-18.600098,40.399994 -32.900146,55.799988c-14.599854,15.5 -32.300049,27.700012 -51.899902,35.899994c-20.300049,8.5 -42.699951,12.700012 -67.5,12.700012c-24.5,0 -47,-4.200012 -67.200073,-12.700012c-19.699951,-8.099976 -37.299927,-20.399994 -51.900024,-35.899994c-14.399902,-15.299988 -25.799927,-34.199982 -33.599976,-55.799988c-8.199951,-21.899994 -12.099976,-46 -12.099976,-72.100006c0,-26.399994 4.199951,-50.200012 12.400024,-71.800003c8.199951,-21.5 19.599976,-40.099991 34.199951,-55.099991c14.800049,-15.300003 32.5,-27.5 52.200073,-35.600006c20.199951,-8.5 42.099854,-12.699997 65.899902,-12.699997c24.100098,0 46.300049,4.199997 66.5,12.699997c20.199951,8.5 37.5,20.199997 51.900146,35.600006c14.799805,15.899994 26.299805,34.599991 33.599854,55.099991c7.600098,21.599991 11.800049,45.400009 11.800049,71.800003zm-96.5,0c0,-29.399994 -5.899902,-52.200012 -17.600098,-68.799988s-28.399902,-25.100006 -49.899902,-25.100006s-38.5,8.5 -50.199951,25.100006s-17.900024,39.799988 -17.900024,68.799988c0,29.399994 5.900024,52.5 17.900024,69.5c11.699951,17.299988 28.699951,25.799988 50.199951,25.799988s38.199951,-8.5 49.899902,-25.799988s17.600098,-40.5 17.600098,-69.5z"/>
  <path id="svg_6" class="st0" d="m2077.99585,62.299999c0,17.299999 -5.5,31.000004 -17,41.100002c-11.100098,10.099998 -24.5,15 -39.800049,15c-14.699951,0.199997 -28.899902,-5.099998 -39.800049,-15c-11.099854,-10.099998 -17,-23.5 -17,-41.100002c0,-17.299999 5.5,-31 17,-41.099998c10.900146,-9.800001 25.100098,-15.200001 39.800049,-15.000001c14.699951,-0.2 28.900146,5.1 39.800049,15.000001c11.399902,10.099998 17,23.799999 17,41.099998zm-8.800049,430.900013l-94.600098,0l0,-334.400009l94.600098,0l0,334.400009z"/>
  <path id="svg_7" class="st0" d="m2122.99585,170.199997c16,-4.599991 36.899902,-9.099991 62.300049,-13c26.399902,-4.099991 53.099854,-6.199997 79.899902,-6.199997c28.400146,0 51.900146,3.600006 70.800049,11.100006s33.899902,17.899994 44.699951,31.299988c11.100098,13.700012 18.900146,29.700012 23.5,48.300003s6.800049,39.500015 6.800049,62.300003l0,188.899994l-94.600098,0l0,-177.5c0,-30.700012 -3.899902,-52.200012 -12.099854,-64.900009s-23.199951,-18.899994 -45,-18.899994c-6.800049,0 -14,0.300003 -21.5,1s-14.400146,1.300003 -20.199951,2.300003l0,258l-94.600098,0l0,-322.699997l0,0z"/>
  <path id="svg_8" class="st1" d="m2669.695801,502c-71.800049,0 -126.199951,-19.899994 -163.699951,-59.700012s-56.100098,-96.199982 -56.100098,-169.600006c0,-36.499985 5.900146,-68.799988 17.300049,-97.499985s27.100098,-52.800011 47,-72.400009c20.199951,-19.799995 44.5,-35.099998 71.100098,-44.699997c27.399902,-10.100002 57.399902,-15.299999 89.699951,-15.299999c18.599854,0 35.599854,1.299999 50.899902,4.199997c13.600098,2.200001 27,5.400002 40.100098,9.5c9.800049,3 19.399902,6.700001 28.699951,11.100002c7.5,3.900002 13,6.799995 16.600098,8.799995l-28.700195,79.900002c-15.099854,-7.800003 -30.899902,-13.899994 -47.299805,-18.300003c-17.900146,-5.199997 -38.5,-7.5 -61.300049,-7.5c-15.199951,0 -30.300049,2.600006 -44.699951,7.5c-14.600098,5.200012 -27.800049,13.600006 -38.800049,24.5c-11.100098,11.100006 -20.199951,25.800003 -27.100098,43.400009c-6.800049,17.899994 -10.099854,39.5 -10.099854,64.899994c-0.100098,19.100006 2.099854,38.200012 6.5,56.800018c4.599854,17.600006 11.699951,32.599976 21.5,45.299988c10.399902,13.100006 23.799805,23.5 39.099854,30.299988c16,7.5 35.600098,11.100006 58.400146,11.100006c13,0 25.899902,-0.799988 38.799805,-2.600006c10.400146,-1.399994 20.600098,-3.399994 30.700195,-6.199982c8,-2 15.899902,-4.600006 23.5,-7.800018c6.799805,-2.899994 13,-5.899994 18.299805,-8.199982l27.400146,79.599976c-14,8.5 -33.600098,16 -59,22.800018c-25.899902,6.800018 -55.5,10.100006 -88.800049,10.100006z"/>
  <path id="svg_9" class="st1" d="m2965.895752,150c28.100098,0 51.199951,3.300003 69.800049,9.5s33.599854,15.300003 44.699951,27.399994c11.399902,12.200012 19.5,27 23.800049,43.100006c4.599854,17 6.800049,35.899994 6.800049,56.399994l0,197c-13.700195,2.899994 -32.300049,6.5 -56.400146,10.399994s-53.5,6.200012 -87.699951,6.200012c-21.5,0 -41.100098,-2 -58.699951,-5.899994c-17.600098,-3.899994 -32.600098,-10.100006 -45.300049,-18.600006c-12.600098,-8.600006 -22.699951,-20.200012 -29.399902,-33.899994c-6.800049,-14 -10.100098,-31 -10.100098,-51.5c0,-19.600006 3.899902,-35.899994 11.699951,-49.600006c7.400146,-13.299988 18.199951,-24.399994 31.300049,-32.299988c13,-8.200012 28.100098,-14 45,-17.600006c17.399902,-3.700012 35.100098,-5.5 52.800049,-5.5c12.399902,0 23.199951,0.699982 32.599854,1.600006c9.5,1 17.300049,2.299988 23.200195,4.199982l0,-8.799988c0,-16 -4.900146,-29 -14.700195,-38.800003s-26.699951,-14.699997 -50.899902,-14.699997c-15.899902,0 -31.800049,1.199997 -47.600098,3.599991c-15.699951,2.300003 -29.399902,5.5 -40.799805,9.800003l-12.100098,-76.300003c5.5,-1.599991 12.399902,-3.599991 20.5,-5.5c8.199951,-2 17.300049,-3.599991 27.100098,-5.199997s19.899902,-2.600006 30.699951,-3.899994c11.5,-0.400009 22.600098,-1.100006 33.699951,-1.100006zm7.5,276.899994c9.5,0 18.300049,-0.300018 26.699951,-0.700012c6.800049,-0.100006 13.5,-0.799988 20.199951,-2l0,-71.799988c-3.899902,-1 -9.5,-1.600006 -17.299805,-2.600006c-6.900146,-0.899994 -13.900146,-1.299988 -20.900146,-1.299988c-8.399902,0.099976 -16.800049,0.599976 -25.099854,1.599976c-7.800049,1 -14.700195,2.900024 -20.5,6.200012c-5.700195,2.700012 -10.5,6.899994 -14,12.100006c-3.5,5.699982 -5.300049,12.199982 -5.200195,18.899994c0,14.700012 4.900146,25.100006 15,30.700012c10.100098,6.299988 23.800293,8.899994 41.100098,8.899994z"/>
  <path id="svg_10" class="st1" d="m3258.095947,425.299988c17.300049,0 29.699951,-1.600006 36.899902,-5.200012c7.200195,-3.299988 10.800049,-10.099976 10.800049,-19.599976c0,-7.5 -4.599854,-14.400024 -14,-19.900024c-9.5,-5.899994 -23.5,-12.099976 -42.699951,-19.199982c-14.699951,-5.5 -28.399902,-11.100006 -40.399902,-17.300018c-12.100098,-5.899994 -22.5,-13 -30.700195,-21.199982c-8.599854,-8.399994 -15.199951,-18.5 -19.599854,-29.700012c-4.600098,-11.399994 -6.800049,-25.100006 -6.800049,-41.400009c0,-31.299988 11.699951,-56.099976 34.899902,-74.399994s55.100098,-27.399994 95.900146,-27.399994c19.599854,0 39.099854,1.899994 58.399902,5.5c18.600098,3.599991 33.600098,7.5 44.400146,11.699997l-16.600098,73.699997c-11.800049,-4.100006 -23.699951,-7.5 -35.899902,-10.100006c-14.300049,-3.099991 -28.800049,-4.699997 -43.400146,-4.599991c-29.699951,0 -44.399902,8.199997 -44.399902,24.800003c-0.100098,3.5 0.599854,6.900009 2,10.099991c1.699951,3.399994 4.300049,6.399994 7.5,8.5c5,3.399994 10.199951,6.300018 15.699951,8.800018c8.100098,4 16.5,7.399994 25.100098,10.399994c20.899902,7.799988 37.799805,15.299988 51.5,22.799988s24.099854,15.700012 32,24.100006c7.5,8.299988 13.199951,18 16.599854,28.700012c3.300049,10.399994 4.900146,22.799988 4.900146,36.899994c0,32.899994 -12.400146,58.100006 -37.200195,74.699982c-24.799805,17 -59.699951,25.400024 -105,25.400024c-29.699951,0 -54.5,-2.600006 -74,-7.5c-19.599854,-5.200012 -33.299805,-9.5 -41.099854,-12.700012l16,-77c16.099854,6.299988 32.699951,11.299988 49.599854,15c16.199951,4.100006 32.899902,6.100006 49.600098,6.100006z"/>
  <path id="svg_11" class="st1" d="m3435.295898,493.200012l0,-477.900012l94.599854,-15.3l0,160.199997c8,-2.5 16.199951,-4.599991 24.5,-6.199997c9.5,-1.899994 19.300049,-2.899994 29,-2.899994c27.100098,0 49.600098,3.599991 67.5,11.099991s32.300049,17.900009 43.100098,31.300003c10.799805,13.699997 18.299805,29.699997 22.799805,48.300003c4.600098,18.599991 6.5,39.499985 6.5,62.300003l0,188.899994l-94.599854,0l0,-177.600006c0,-30.700012 -3.900146,-52.200012 -11.699951,-64.900009s-22.5,-18.899994 -43.400146,-18.899994c-8,-0.100006 -16,0.699997 -23.800049,2.300003c-7.5,1.599991 -14,2.899994 -19.899902,4.899994l0,254.100006l-94.600098,0l0.000244,0.300018z"/>
  <circle id="svg_12" class="st1" r="249.499985" cy="251.499945" cx="276.09823"/>
  <path class="st2" d="m353.698242,167.999939c-12.5,-28.399994 -41.200012,-34.300003 -76.399994,-28.5l-11.300018,-43.699989l-26.700012,6.899994l11.100006,43.699989c-7,1.800003 -14.199982,3.300003 -21.299988,5.300003l-11.200012,-43.399986l-26.699982,6.899994l11.299988,43.799995c-5.700012,1.600006 -53.700012,14 -53.700012,14l7.400024,28.5c0,0 19.599976,-5.5 19.399994,-5c10.799988,-2.800003 15.899994,2.600006 18.399994,7.699997l31,120.000015c0.399994,3.5 -0.200012,9.5 -7.700012,11.399994c0.400024,0.199982 -19.399994,5 -19.399994,5l2.899994,33.199982c0,0 47.5,-12.199982 53.800018,-13.699982l11.5,44.299988l26.600006,-6.899994l-11.400024,-44.600006c7.400024,-1.699982 14.400024,-3.5 21.400024,-5.299988l11.399994,44.399994l26.699982,-6.899994l-11.399994,-44.200012c41,-10 70.000031,-35.799988 64.000031,-75.399994c-3.800049,-23.800003 -29.800018,-43.399994 -51.500031,-45.600006c13.300018,-12.099991 20.100006,-29.299988 11.800018,-51.899994l0,0zm-12.800018,104.399994c5.299988,39.199982 -49.100006,44 -67.199982,48.699982l-15.700012,-58.599976c18.200012,-4.700012 74,-24.600006 82.899994,9.899994zm-32.799988,-79.699997c5.600006,34.800003 -40.899994,38.900009 -56,42.800003l-14.299988,-53.199997c15.099976,-3.900009 58.899994,-21.900009 70.299988,10.399994z" id="symbol_1_"/>
</svg>
